<svg width="35" height="46" viewBox="0 0 35 46" fill="none" xmlns="http://www.w3.org/2000/svg">
<path d="M16.5646 0.0215613C14.7553 0.158124 13.6833 0.416874 12.4999 1.00625C11.7733 1.36922 11.356 1.6639 10.8092 2.21015C10.3272 2.68812 10.0682 3.01515 9.7409 3.565C8.7409 5.23969 8.2373 7.74094 8.2373 11.0364C8.2373 13.8287 8.90277 16.1934 10.2769 18.2814C10.6833 18.9031 11.0754 19.3739 11.669 19.9633C13.0107 21.2966 14.4891 22.0836 16.2481 22.3927C16.9136 22.5112 18.0862 22.5112 18.7517 22.3927C20.4459 22.0944 21.9172 21.3325 23.2265 20.0747C25.115 18.2598 26.3236 15.7227 26.6726 12.8297C26.7985 11.8019 26.7805 9.85406 26.633 8.35547C26.4064 6.0339 25.8056 4.22984 24.8344 2.91812C24.5395 2.5264 23.82 1.82203 23.4172 1.53453C23.0071 1.24344 22.0646 0.769061 21.5503 0.592968C20.8416 0.352186 20.0934 0.190468 19.2085 0.0898426C18.7481 0.0359363 16.9747 -0.0107824 16.5646 0.0215613Z" fill="black"/>
<path d="M11.9063 23.4528C8.90994 24.0422 6.97829 24.6172 5.45671 25.3755C4.69771 25.7528 4.17973 26.0763 3.62577 26.5147C2.32361 27.5497 1.41714 28.98 0.881165 30.8344C0.330805 32.7427 0.0897981 35.1469 0.0142585 39.5133L-0.00732422 40.807L0.104187 40.9723C0.902748 42.1547 2.72649 43.3658 4.9639 44.1959C7.55383 45.1555 10.4999 45.6873 14.6042 45.9353C15.5862 45.9928 19.4207 45.9928 20.3956 45.9353C24.4963 45.6873 27.4531 45.1519 30.0358 44.1959C32.2697 43.3658 34.1006 42.1511 34.8956 40.9723L35.0071 40.807L34.9855 39.5492C34.9315 36.5772 34.8164 34.6905 34.6006 33.1703C33.8128 27.6395 31.4495 25.3539 24.9603 23.8481C24.3452 23.708 23.5251 23.5355 22.9531 23.4277L22.579 23.3594L22.2769 23.6469C21.4171 24.4627 20.1222 25.0233 18.633 25.2317C18.1869 25.2964 16.8164 25.2964 16.3668 25.2317C14.892 25.0305 13.5538 24.4483 12.7121 23.6397C12.5502 23.4852 12.4063 23.3594 12.3884 23.363C12.3704 23.363 12.1545 23.4061 11.9063 23.4528Z" fill="black"/>
</svg>
