<svg width="47" height="47" viewBox="0 0 47 47" fill="none" xmlns="http://www.w3.org/2000/svg">
<path d="M22.2331 42.9022C18.675 42.6268 15.5539 41.562 12.6862 39.6379C11.5809 38.8998 10.7291 38.1948 9.76703 37.2328C8.78664 36.2524 8.09266 35.4042 7.32524 34.2586C5.58109 31.6442 4.575 28.894 4.17844 25.6591C4.105 25.0642 4.09766 24.8182 4.09766 23.5C4.09766 21.9248 4.13438 21.407 4.33633 20.2394C5.0193 16.2554 6.89563 12.6386 9.76703 9.76719C10.7474 8.7868 11.5956 8.09281 12.7413 7.32539C15.0839 5.76484 17.6285 4.76242 20.3824 4.31813C21.5868 4.12352 21.9503 4.09781 23.4999 4.09781C25.0494 4.09781 25.4129 4.12352 26.6173 4.31813C33.95 5.50047 40.0306 10.8541 42.1346 17.9775C42.4614 19.0864 42.667 20.0925 42.8213 21.3409C42.8947 21.9358 42.902 22.1818 42.902 23.5C42.902 25.0752 42.8653 25.6003 42.6634 26.7606C42.2044 29.4191 41.213 31.9306 39.7442 34.1631C36.7663 38.6832 32.048 41.7676 26.7348 42.6672C25.6626 42.8471 25.1191 42.8912 23.7385 42.9022C23.0115 42.9095 22.3359 42.9095 22.2331 42.9022ZM25.1522 39.8582C28.5707 39.502 31.7542 38.1177 34.2952 35.8852C37.3502 33.2011 39.2669 29.6247 39.803 25.6223C40.2326 22.3874 39.6598 19.0423 38.1727 16.1012C37.2033 14.1918 35.9255 12.5468 34.2952 11.1148C29.3565 6.77828 22.2147 5.82727 16.3177 8.71703C13.0534 10.3143 10.4206 12.9213 8.79766 16.1599C6.46602 20.8048 6.47703 26.2576 8.82703 30.8988C9.79641 32.8082 11.0742 34.4532 12.7045 35.8852C15.1647 38.0443 18.216 39.4066 21.517 39.8215C22.5929 39.9573 24.0653 39.972 25.1522 39.8582Z" fill="black"/>
<path d="M20.9846 34.3724C20.8083 34.2917 20.6945 34.1742 20.6174 33.9942C20.5696 33.8731 20.5623 33.4141 20.5623 30.1461V26.4375H16.8464C13.3104 26.4375 13.1194 26.4338 12.9799 26.3677C12.8036 26.287 12.6898 26.1695 12.6127 25.9895C12.565 25.872 12.5576 25.5416 12.5576 23.5C12.5576 21.4584 12.565 21.128 12.6127 21.0105C12.6898 20.8305 12.8036 20.713 12.9799 20.6323C13.1194 20.5662 13.3104 20.5625 16.8464 20.5625H20.5623V16.8466C20.5623 13.3105 20.566 13.1196 20.6321 12.9801C20.7129 12.8038 20.8304 12.69 21.0103 12.6129C21.1278 12.5651 21.4582 12.5578 23.5071 12.5578C25.7176 12.5578 25.8792 12.5651 26.015 12.6276C26.1986 12.7083 26.3492 12.8809 26.4006 13.0645C26.4226 13.1526 26.4373 14.4635 26.4373 16.8833V20.5625H30.1459C33.4139 20.5625 33.8729 20.5698 33.994 20.6176C34.1739 20.6947 34.2914 20.8085 34.3722 20.9848C34.4346 21.1243 34.442 21.2748 34.442 23.5C34.442 25.7178 34.4346 25.8794 34.3722 26.0152C34.2914 26.1988 34.1189 26.3494 33.9353 26.4008C33.8471 26.4228 32.5363 26.4375 30.1202 26.4375H26.4373V30.1204C26.4373 32.5365 26.4226 33.8474 26.4006 33.9355C26.3492 34.1191 26.1986 34.2917 26.015 34.3724C25.8792 34.4349 25.7176 34.4422 23.4998 34.4422C21.2746 34.4422 21.1241 34.4349 20.9846 34.3724Z" fill="black"/>
</svg>
