<svg width="52" height="37" viewBox="0 0 52 37" fill="none" xmlns="http://www.w3.org/2000/svg">
<path d="M7.51582 7.13425V9.52597H6.5002H5.48457V9.75083V9.97569H6.5002H7.51582V10.1188V10.2619H6.69926H5.88676L5.89895 10.4704L5.91113 10.6789L6.71551 10.6707L7.51582 10.6666V12.9193V15.168H6.5002H5.48457V15.3928V15.6218L6.5002 15.6095L7.51582 15.5972V15.7281V15.863L6.71551 15.8712L5.91113 15.8834L5.89895 16.096L5.88676 16.3127H6.69926H7.51582V18.6022V20.8917H6.5002H5.48457V21.1166V21.3414H6.5002H7.51582V21.4845V21.6276H6.70332H5.89082V21.832V22.0365H6.70332H7.51582V24.1215V26.2066H6.5002H5.48457V26.4315V26.6564H6.5002H7.51582V26.7994V26.9385H6.71551H5.91113L5.89895 27.1429L5.88676 27.3514H6.69926H7.51582V28.9867V30.6221H4.73301H1.9502V30.8347V31.0514L4.73301 31.0432L7.51582 31.0309V31.174V31.3171H4.93613H2.35645V31.542V31.7669H4.93613H7.51582V33.5862V35.4055H7.73926H7.9627V35.7612V36.121H8.16582H8.36895V33.9419V31.7669H10.3393H12.3096V32.6663V33.5657H12.533H12.7564V33.9133V34.2608H12.9596H13.1627V33.0138V31.7669H15.3768H17.5908V32.6663V33.5657H17.7939H17.9971V33.9133V34.2608H18.2205H18.4439V33.0138V31.7669H20.8611H23.2783V32.6663V33.5657H23.5018H23.7252V33.9133V34.2608H23.9283H24.1314V33.0138V31.7669H26.508H28.8846V32.6663V33.5657H29.0877H29.2908V33.9133V34.2608H29.5143H29.7377V33.0138V31.7669H32.0127H34.2877V32.6663V33.5657H34.4908H34.6939V33.9133V34.2608H34.9174H35.1408V33.0138V31.7669H37.5377H39.9346V32.6663V33.5657H40.1377H40.3408V33.9133V34.2608H40.5643H40.7877V33.0138V31.7669H43.4486H46.1096V32.6663V33.5657H46.333H46.5564V33.9133V34.2608H46.7596H46.9627V33.0138V31.7669H48.5064H50.0502V31.542V31.3171H48.5024H46.9586L46.9708 31.1822L46.983 31.0514L48.3033 31.0432L49.6236 31.0309L49.6358 30.8265L49.648 30.6221H48.3074H46.9627V29.9475V29.2729H46.7596H46.5564V28.9009V28.5329L46.3452 28.5452L46.1299 28.5575L46.1177 29.5877L46.1096 30.6221H43.4486H40.7877V29.9475V29.2729H40.5846H40.3855L40.3733 28.9131L40.3611 28.5575L40.1499 28.5452L39.9346 28.5329V29.5755V30.6221H37.5377H35.1408V29.9475V29.2729H34.9377H34.7386L34.7264 28.9131L34.7143 28.5575L34.503 28.5452L34.2877 28.5329V29.5755V30.6221H32.0127H29.7377V29.9475V29.2729H29.5346H29.3355L29.3233 28.9131L29.3111 28.5575L29.0999 28.5452L28.8846 28.5329V29.5796V30.6221L26.5202 30.6139L24.1518 30.6017L24.1396 29.9393L24.1314 29.2729H23.9283H23.7252V28.9009V28.5329L23.5139 28.5452L23.2986 28.5575L23.2864 29.5877L23.2783 30.6221H20.8611H18.4399L18.4521 30.0252L18.4643 29.4283L19.6424 29.0276C21.8727 28.2713 23.1483 27.7888 24.4564 27.2083C28.7099 25.3113 32.1589 23.3611 34.2064 21.693C35.8233 20.3807 38.8296 17.5842 39.508 16.7665C39.6218 16.6316 39.7193 16.5212 39.7314 16.5212C39.7436 16.5171 40.1864 16.8769 40.7146 17.3144C41.2427 17.7518 41.6936 18.1116 41.7139 18.1116C41.7343 18.1116 41.7708 18.0625 41.7952 17.9971C41.8643 17.8172 44.0011 7.26917 43.9808 7.21193C43.9646 7.17105 43.8996 7.18331 43.7086 7.26099C43.5705 7.31823 43.4527 7.35503 43.4446 7.34685C43.4364 7.33867 43.4649 7.15061 43.5096 6.92983C43.6071 6.45967 43.6071 6.45967 43.538 6.45967C43.4364 6.45967 37.8708 8.77779 35.8924 9.64044C34.1658 10.3927 33.6052 10.6666 33.4589 10.8302C33.398 10.8997 33.4102 10.916 33.7027 11.1572L34.0114 11.4148L33.918 11.5129C33.8083 11.6315 33.7433 11.5579 34.5518 12.2243C34.8889 12.4982 35.1693 12.7313 35.1774 12.7394C35.1977 12.7558 34.5193 13.5612 33.8611 14.3053C29.6199 19.0846 24.5174 23.0463 18.6186 26.1371C17.603 26.6686 16.1689 27.3636 15.2386 27.7807C14.548 28.0873 12.8093 28.8232 12.7727 28.8232C12.7646 28.8232 12.7564 28.7578 12.7564 28.6801V28.537H12.533H12.3096V28.7741V29.0113L11.428 29.3424C10.4286 29.7186 8.51113 30.3768 8.42582 30.3768C8.37707 30.3768 8.36895 30.1315 8.36895 28.8641V27.3514H9.63238H10.8918L10.8796 27.147L10.8674 26.9385L9.62832 26.9303L8.38926 26.9221L8.37707 26.7913L8.36488 26.6564L9.40895 26.6482L10.4489 26.6359L10.4571 26.4192L10.4611 26.2066H9.41707H8.36895V24.1215V22.0365H9.62832H10.8877V21.832V21.6276H9.62832H8.36895V21.4845V21.3414H9.40488H10.4408V21.1166V20.8917H9.40488H8.36895V18.6022V16.3127H9.63238H10.8918L10.8796 16.096L10.8674 15.8834L9.6202 15.8712L8.36895 15.863V15.7403V15.6177L9.40895 15.6095L10.4489 15.5972L10.4571 15.3806L10.4611 15.168H9.41301H8.36895L8.37707 12.9275L8.38926 10.6912L9.64051 10.6789L10.8877 10.6707V10.4663V10.2619H9.62832H8.36895V10.1188V9.97569H9.41707H10.4611L10.4571 9.76309L10.4489 9.54641L9.40895 9.53414L8.36895 9.52597V7.50221V5.47845H8.16582H7.9627V5.1105V4.74254H7.73926H7.51582V7.13425ZM17.5908 30.1724V30.6221H15.978C15.0924 30.6221 14.3774 30.6139 14.3855 30.6017C14.3977 30.5935 14.6983 30.5076 15.0518 30.4177C15.7993 30.2255 17.3958 29.7676 17.4243 29.7431C17.4324 29.7308 17.4771 29.7227 17.5177 29.7227C17.5827 29.7227 17.5908 29.7635 17.5908 30.1724ZM10.4205 30.5812C10.3758 30.6017 10.2743 30.6139 10.1971 30.6139H10.0549L10.1768 30.5812C10.2458 30.5649 10.3433 30.5485 10.4002 30.5485C10.4936 30.5444 10.4936 30.5485 10.4205 30.5812ZM8.9377 31.0677C8.9377 31.0923 8.48676 31.2354 8.40957 31.2354C8.36895 31.2354 8.3527 31.1045 8.38926 31.0636C8.4177 31.035 8.9377 31.0391 8.9377 31.0677ZM12.3096 31.174V31.3171L11.4077 31.313C10.908 31.309 10.5586 31.2967 10.6236 31.2885C11.0258 31.2394 12.2649 31.0514 12.3014 31.035C12.3055 31.035 12.3096 31.0964 12.3096 31.174ZM17.5908 31.174V31.3171H15.3768H13.1627V31.2027C13.1627 31.1372 13.1749 31.0718 13.1871 31.0596C13.2033 31.0432 14.1986 31.0309 15.4011 31.0309H17.5908V31.174ZM23.2783 31.174V31.3171H20.8611H18.4439V31.2027C18.4439 31.1372 18.4561 31.0718 18.4724 31.0596C18.4846 31.0432 19.5733 31.0309 20.8896 31.0309H23.2783V31.174ZM28.8764 31.1822L28.8886 31.3171H26.5121H24.1314V31.2027C24.1314 31.1372 24.1436 31.0718 24.1599 31.0596C24.1721 31.0432 25.2364 31.035 26.5243 31.0432L28.8643 31.0514L28.8764 31.1822ZM34.2796 31.1822L34.2918 31.3171H32.0168H29.7377V31.174V31.0309L32.0046 31.0391L34.2674 31.0514L34.2796 31.1822ZM39.9264 31.1822L39.9386 31.3171H37.5418H35.1408V31.174V31.0309L37.5296 31.0391L39.9143 31.0514L39.9264 31.1822ZM46.1096 31.174V31.3171H43.4486H40.7877V31.174V31.0309H43.4486L46.1096 31.035V31.174Z" fill="black"/>
</svg>
