<svg width="41" height="45" viewBox="0 0 41 45" fill="none" xmlns="http://www.w3.org/2000/svg">
<g clip-path="url(#clip0_3_96)">
<path d="M33.3731 44.9648C33.3731 44.8488 33.0901 43.0137 33.0694 42.9926C33.0556 42.982 32.9348 42.9363 32.8002 42.8941C32.6621 42.8555 32.4102 42.75 32.2376 42.6586C32.0513 42.5672 31.9063 42.5109 31.8787 42.5285C31.858 42.5426 31.4956 42.8133 31.0815 43.1297L30.3257 43.7027L29.8977 43.2703C29.663 43.0312 29.4801 42.8203 29.487 42.7992C29.4939 42.7781 29.7562 42.409 30.0703 41.9801L30.6432 41.1961L30.4948 40.8937C30.4119 40.725 30.3084 40.4789 30.267 40.3418C30.2256 40.2082 30.1807 40.0711 30.1669 40.043C30.1462 40.0043 29.8943 39.9551 29.1661 39.8496L28.1963 39.7125V39.0867C28.1963 38.468 28.1963 38.4609 28.2757 38.4469C28.3171 38.4363 28.7588 38.3695 29.2558 38.2992L30.16 38.1656L30.2497 37.8738C30.2981 37.7121 30.4085 37.4414 30.4913 37.2762C30.5742 37.1109 30.6328 36.9562 30.6225 36.9352C30.6087 36.9141 30.3464 36.552 30.0358 36.1336C29.7252 35.7117 29.4732 35.3566 29.4732 35.3426C29.4732 35.325 29.663 35.1211 29.8977 34.8855L30.3188 34.4566L31.1229 35.0648L31.9236 35.673L32.21 35.5254C32.3653 35.441 32.6242 35.332 32.7864 35.2793C32.9486 35.223 33.0832 35.1773 33.0866 35.1738C33.0935 35.1703 33.1591 34.7344 33.235 34.2035C33.3109 33.6727 33.38 33.2191 33.3903 33.198C33.4076 33.1418 34.6155 33.1312 34.6155 33.184C34.6155 33.2332 34.895 35.1703 34.9019 35.1773C34.9054 35.1773 35.04 35.223 35.2022 35.2793C35.3644 35.332 35.6267 35.4445 35.7854 35.5254L36.0719 35.6766L36.8726 35.0684L37.6698 34.4566L38.0943 34.8855C38.3255 35.1211 38.5153 35.3285 38.5153 35.3461C38.5153 35.3637 38.253 35.7363 37.9286 36.1758L37.3454 36.9703L37.4938 37.2656C37.5766 37.4309 37.687 37.7016 37.7388 37.8738C37.7906 38.0426 37.8458 38.1797 37.8596 38.1797C37.8941 38.1797 39.5334 38.4187 39.6818 38.4434L39.7923 38.4645V39.0902V39.716L38.8708 39.8461C38.36 39.9199 37.9217 39.9867 37.8872 39.9937C37.8527 40.0043 37.7975 40.1168 37.7388 40.2996C37.6905 40.4578 37.5801 40.7285 37.4972 40.8973L37.3419 41.2066L37.9148 41.9801C38.2289 42.4055 38.4912 42.7711 38.5015 42.7957C38.5084 42.8203 38.3221 43.0348 38.0874 43.2738L37.6594 43.7062L36.9071 43.1297C36.4895 42.8133 36.134 42.5426 36.1099 42.5285C36.0891 42.5144 35.9269 42.5742 35.7475 42.6621C35.5715 42.75 35.3195 42.8555 35.1849 42.8977C35.0538 42.9363 34.9295 42.982 34.9157 42.9961C34.895 43.0137 34.6155 44.8453 34.6155 44.9684C34.6155 44.9859 34.3636 45 33.9943 45C33.5974 45 33.3731 44.9859 33.3731 44.9648ZM34.4843 41.3402C34.5844 41.3191 34.8122 41.2312 34.9917 41.1434C35.5818 40.8551 36.0201 40.3102 36.1892 39.6562C36.2617 39.375 36.2721 38.8336 36.2065 38.5664C36.0098 37.7508 35.3989 37.1039 34.5948 36.8578C34.3118 36.7699 33.6768 36.7699 33.3903 36.8578C32.7449 37.0582 32.2411 37.4906 31.9581 38.0918C31.7924 38.4504 31.7407 38.6789 31.7372 39.0762C31.7372 39.7547 31.9995 40.3594 32.4999 40.8164C32.7242 41.0168 33.1694 41.2594 33.449 41.3262C33.6768 41.3859 34.2428 41.393 34.4843 41.3402Z" fill="black"/>
<path d="M23.7442 39.2133C22.098 39.1148 20.3966 38.7562 18.9126 38.1973C18.3984 38.0039 17.7116 37.7051 17.6598 37.6559C17.6356 37.6312 20.8936 31.8305 20.9833 31.7355C20.9971 31.718 21.1938 31.7707 21.4181 31.8516C22.4949 32.2348 23.444 32.393 24.6588 32.3895C25.2973 32.3895 25.5527 32.3754 25.953 32.3121C27.1505 32.1258 28.0375 31.8375 29.0763 31.2926C31.7751 29.8793 33.7181 27.1863 34.2151 24.1699L34.2565 23.9238L37.6318 23.9133L41.007 23.9062L40.9863 24.0363C40.976 24.1102 40.9587 24.2719 40.9484 24.3984C40.7413 26.5852 39.9096 29.0918 38.7224 31.0957C38.0942 32.1574 37.1314 33.4301 36.417 34.1473C36.2202 34.3441 36.2099 34.3512 36.1133 34.309C36.058 34.2844 36.0097 34.2598 36.0028 34.2562C35.9959 34.2527 35.9165 33.7289 35.8268 33.0961L35.6646 31.9395L34.0046 31.9289C32.3894 31.9219 32.3446 31.9219 32.3273 31.9887C32.3204 32.0273 32.2445 32.5336 32.1617 33.1172C32.0512 33.9187 32.0029 34.1719 31.9718 34.1578C31.9477 34.1473 31.5508 33.8555 31.0952 33.5039C30.6397 33.1523 30.2463 32.8605 30.2221 32.85C30.1979 32.843 29.6561 33.3703 29.0107 34.0277L27.8442 35.216L28.5172 36.1336C29.1798 37.0301 29.1936 37.0512 29.1005 37.0687C29.0487 37.0793 28.5655 37.1531 28.0237 37.2305C27.4819 37.3113 27.0194 37.3816 26.9987 37.3887C26.9642 37.3992 26.9538 37.5996 26.9538 38.2289V39.0516L26.8434 39.0727C26.305 39.1746 24.4759 39.2555 23.7442 39.2133Z" fill="black"/>
<path d="M14.8332 35.9367C13.3768 34.8293 12.0516 33.4301 11.0404 31.9219C10.395 30.9621 9.75308 29.7281 9.29063 28.5504C9.28027 28.5223 9.34584 28.5574 9.43903 28.6312L9.60813 28.7613L10.7746 27.573C11.5063 26.8277 11.9342 26.3672 11.9239 26.3355C11.9135 26.3109 11.6167 25.8926 11.2647 25.4109C10.9092 24.9293 10.6262 24.532 10.6331 24.525C10.64 24.518 11.099 24.4476 11.6478 24.3668C12.2 24.2859 12.69 24.2121 12.7453 24.2016L12.8384 24.1805L12.8315 22.4894L12.8212 20.7984L11.7272 20.6367C11.1232 20.5488 10.6297 20.4715 10.6297 20.4609C10.6297 20.4504 10.9265 20.0391 11.2854 19.5469C11.6478 19.0547 11.9411 18.6433 11.9411 18.6328C11.9411 18.6223 11.4131 18.0773 10.7712 17.4234L9.60123 16.2316L9.45628 16.3476C9.38036 16.4109 9.30788 16.4566 9.30098 16.4496C9.27682 16.4215 9.76344 15.3211 10.0464 14.7656C10.999 12.9023 12.2552 11.2781 13.8186 9.88592C14.25 9.50272 15.2128 8.73631 15.2336 8.76092C15.3267 8.86991 18.5985 14.7094 18.5777 14.7269C18.2188 15.0293 17.7874 15.4301 17.5769 15.6586C15.2853 18.1266 14.3846 21.5543 15.168 24.8379C15.3509 25.6113 15.5856 26.2547 15.9238 26.9402C16.5588 28.2129 17.3629 29.2254 18.5087 30.2062L18.6088 30.2871L16.9557 33.2051C16.0446 34.8117 15.2853 36.1512 15.2681 36.1828C15.2405 36.2355 15.1818 36.2039 14.8332 35.9367Z" fill="black"/>
<path d="M5.05943 27.45C4.9835 26.9227 4.91103 26.4656 4.89722 26.434C4.88342 26.4059 4.77298 26.3531 4.65219 26.318C4.5314 26.2863 4.27601 26.1809 4.07929 26.0824L3.72037 25.9066L2.9266 26.5113L2.13628 27.116L1.70143 26.673L1.26658 26.2301L1.86019 25.4215L2.45724 24.6094L2.28123 24.2508C2.1846 24.0504 2.08106 23.7867 2.04655 23.6637C2.00513 23.509 1.96717 23.4316 1.91886 23.4105C1.87744 23.3965 1.43224 23.3227 0.924916 23.2523L0 23.1188V22.4965V21.8707L0.110438 21.8496C0.172559 21.8391 0.61431 21.7758 1.08712 21.7055C1.56338 21.6352 1.96027 21.5684 1.97062 21.5578C1.98443 21.5438 2.02584 21.4242 2.0638 21.2871C2.10522 21.1535 2.20875 20.8934 2.29503 20.7141C2.40892 20.475 2.44343 20.3695 2.41928 20.3273C2.40202 20.2957 2.13628 19.9266 1.83258 19.5117L1.27348 18.7594L1.69798 18.327C1.93266 18.0879 2.13283 17.8945 2.14663 17.8945C2.16389 17.8945 2.52626 18.1617 2.95421 18.4887L3.73072 19.0863L4.00337 18.9422C4.15177 18.8613 4.41751 18.7488 4.59352 18.6891L4.91793 18.5801L5.05598 17.5852L5.19402 16.5902L5.80488 16.5832C6.39158 16.5762 6.41574 16.5797 6.433 16.6465C6.4399 16.6852 6.50547 17.1387 6.57795 17.652L6.70909 18.5906L6.96793 18.6715C7.11288 18.7137 7.37862 18.8262 7.56153 18.9176L7.89284 19.0828L8.67626 18.4887C9.10766 18.1617 9.47003 17.8945 9.48384 17.8945C9.49764 17.8945 9.69781 18.0879 9.92904 18.327L10.3501 18.7559L9.76338 19.5574C9.44242 19.9969 9.18013 20.3695 9.18013 20.3801C9.18013 20.3941 9.24916 20.5453 9.33199 20.7211C9.41827 20.8969 9.5218 21.1641 9.56322 21.3152C9.60808 21.4629 9.65295 21.5859 9.6702 21.5859C9.68401 21.5859 10.1189 21.6492 10.6331 21.7266C11.1508 21.8039 11.5856 21.8672 11.6029 21.8672C11.6167 21.8672 11.6305 22.1484 11.6305 22.493V23.1223L10.709 23.2523C10.1982 23.3262 9.74958 23.393 9.71162 23.4035C9.65295 23.4141 9.62534 23.4703 9.57702 23.6461C9.54596 23.7691 9.43552 24.0398 9.33889 24.2438L9.15943 24.6164L9.75648 25.4285L10.357 26.2406L9.93249 26.673C9.69781 26.9121 9.49764 27.1055 9.48729 27.1055C9.47348 27.1055 9.12492 26.8488 8.71077 26.5324C8.29318 26.2195 7.93426 25.9488 7.9101 25.9313C7.88594 25.9172 7.79621 25.9488 7.68577 26.0121C7.4649 26.1387 7.03005 26.318 6.85404 26.3496C6.78157 26.3637 6.71944 26.3953 6.71254 26.4164C6.70564 26.4375 6.64352 26.8523 6.57449 27.334C6.50547 27.8191 6.44335 28.2551 6.433 28.3113L6.41229 28.4062H5.80488H5.19402L5.05943 27.45ZM6.41919 24.7113C7.42694 24.4371 8.12407 23.4492 8.0654 22.377C8.00328 21.266 7.21641 20.3836 6.13965 20.2113C5.43215 20.0988 4.73157 20.3449 4.20354 20.8828C3.73417 21.3645 3.52365 21.948 3.56507 22.6441C3.59613 23.2313 3.8032 23.6988 4.21389 24.1207C4.79024 24.7148 5.60126 24.9293 6.41919 24.7113Z" fill="black"/>
<path d="M34.2566 21.0516C34.2497 21.0269 34.2083 20.816 34.1669 20.584C33.7976 18.5695 32.6863 16.5621 31.1816 15.1805C29.4008 13.5492 27.2852 12.6738 24.935 12.5965C23.6857 12.5578 22.5433 12.7336 21.3975 13.1449C21.1801 13.2223 20.9937 13.275 20.9799 13.2609C20.9385 13.2152 17.6357 7.37578 17.6357 7.35118C17.6357 7.33711 17.8497 7.23516 18.1086 7.12266C19.6547 6.44766 21.1283 6.05391 22.847 5.85352C23.8479 5.73399 25.5493 5.74805 26.6088 5.88165L26.9367 5.92383L26.9539 6.76758L26.9712 7.61133L28.0479 7.76953C28.6381 7.85742 29.1316 7.93828 29.1454 7.95235C29.1592 7.96289 28.8693 8.38125 28.5035 8.87695L27.8374 9.77695L29.0143 10.9758L30.1911 12.1746L31.0505 11.5242C31.5198 11.1621 31.9271 10.8633 31.9547 10.8563C31.9926 10.8492 32.0375 11.0742 32.1618 11.9531L32.324 13.0605L33.984 13.0711L35.644 13.0781L35.6647 12.9656C35.6751 12.9023 35.7475 12.4066 35.8235 11.8652C35.8994 11.3238 35.9684 10.8457 35.9788 10.8035C35.9891 10.7613 36.0409 10.7121 36.1064 10.6875L36.2203 10.6488L36.5655 11.0109C37.6767 12.1781 38.6224 13.5703 39.3782 15.1348C40.2582 16.9594 40.7552 18.7383 40.983 20.8933L41.0037 21.0937H37.6353C34.971 21.0937 34.267 21.0832 34.2566 21.0516Z" fill="black"/>
<path d="M33.3625 11.7352C33.3487 11.6719 33.2866 11.2148 33.2175 10.7227C33.1485 10.2305 33.0898 9.82617 33.0864 9.82265C33.0829 9.81914 32.9483 9.77695 32.7861 9.7207C32.6239 9.66797 32.3616 9.55898 32.2029 9.47461L31.9164 9.32343L31.1123 9.93164L30.3116 10.5398L29.8768 10.0969L29.4454 9.65742L30.0459 8.84531L30.643 8.02969L30.5084 7.76601C30.3703 7.49179 30.2633 7.22109 30.1978 6.97148C30.177 6.88711 30.1494 6.82031 30.1322 6.82031C30.1184 6.82031 29.6732 6.75703 29.1451 6.67969C28.6171 6.60234 28.1857 6.53906 28.1823 6.53906C28.1616 6.53906 28.1995 5.29101 28.2202 5.28398C28.234 5.28047 28.6378 5.2207 29.1106 5.15039C29.5869 5.08359 30.0148 5.0168 30.0666 5.00625C30.146 4.99219 30.1667 4.95351 30.2461 4.70039C30.2944 4.54219 30.4014 4.275 30.4876 4.10273L30.643 3.79687L30.0735 3.01992C29.7595 2.59101 29.4972 2.22539 29.4868 2.20078C29.4799 2.17969 29.6663 1.96523 29.9009 1.72617L30.3289 1.29375L31.0813 1.87031C31.4988 2.18672 31.8543 2.45742 31.8785 2.47148C31.8992 2.48555 32.0614 2.42578 32.2408 2.33789C32.4169 2.25 32.6722 2.14453 32.8034 2.10234C32.938 2.06367 33.0553 2.01797 33.0691 2.00742C33.0898 1.98984 33.3728 0.126562 33.3728 0.0210937C33.3728 0.0105469 33.6524 0 33.994 0C34.4669 0 34.6153 0.0105469 34.6153 0.0457031C34.6187 0.182812 34.8914 1.98281 34.9155 2.00391C34.9293 2.01797 35.0536 2.06367 35.1882 2.10586C35.3262 2.14453 35.5781 2.25 35.7507 2.34141L36.0648 2.49961L36.1786 2.42226C36.2373 2.37656 36.5962 2.10586 36.9759 1.81758L37.6592 1.29375L38.0871 1.72617C38.3218 1.96523 38.5082 2.17969 38.5013 2.2043C38.4909 2.22891 38.2252 2.59453 37.9111 3.02344L37.3417 3.79687L37.4935 4.10273C37.5764 4.275 37.6799 4.53164 37.7248 4.67578C37.7662 4.81992 37.8214 4.95703 37.8387 4.97812C37.8594 4.99922 38.308 5.07656 38.8361 5.1539L39.792 5.29101V5.91328V6.53554L39.6816 6.55664C39.4607 6.59531 37.918 6.82031 37.8766 6.82031C37.849 6.82031 37.7903 6.94687 37.7351 7.12265C37.6834 7.28789 37.5764 7.55859 37.4935 7.72383C37.4107 7.89258 37.3555 8.04375 37.3658 8.06484C37.3797 8.08594 37.6419 8.44804 37.9525 8.8664C38.2632 9.28828 38.5151 9.64336 38.5151 9.65742C38.5151 9.675 38.3253 9.8789 38.0906 10.118L37.6696 10.5469L36.8654 9.93515L36.0613 9.32695L35.7438 9.49218C35.5678 9.58008 35.3055 9.69258 35.1605 9.73828C34.9293 9.80859 34.8914 9.8332 34.8775 9.91054C34.8672 9.95976 34.8051 10.3992 34.7361 10.8809C34.667 11.366 34.6049 11.7809 34.598 11.8055C34.5877 11.8371 34.4323 11.8477 33.9802 11.8477H33.3797L33.3625 11.7352ZM34.46 8.17383C35.2813 7.99804 35.9819 7.30898 36.189 6.46875C36.2649 6.1664 36.2649 5.63906 36.1855 5.34375C35.9267 4.33125 35.0259 3.62109 34.0044 3.62109C33.5799 3.62109 33.3832 3.6668 32.9932 3.85664C32.4272 4.13437 32.0096 4.63711 31.8129 5.27344C31.7094 5.61094 31.7059 6.19453 31.7991 6.52148C32.1511 7.71328 33.2935 8.42344 34.46 8.17383Z" fill="black"/>
</g>
<defs>
<clipPath id="clip0_3_96">
<rect width="41" height="45" fill="white" transform="matrix(1 0 0 -1 0 45)"/>
</clipPath>
</defs>
</svg>
